<?xml version="1.0" encoding="UTF-8"?>
<svg id="bibliothèque" xmlns="http://www.w3.org/2000/svg" viewBox="0 0 3030.96 1234.19">
  <defs>
    <style>
      .cls-1 {
        fill: #a95331;
      }

      .cls-2 {
        fill: #fafafa;
      }

      .cls-3 {
        fill: #b6582a;
      }

      .cls-4 {
        fill: #cdcccc;
      }

      .cls-5 {
        fill: #eabe97;
      }

      .cls-6 {
        fill: #ce6b39;
      }

      .cls-7 {
        fill: #53a6af;
      }

      .cls-8 {
        fill: #ef7b49;
      }

      .cls-9 {
        fill: #6d564a;
      }

      .cls-10 {
        fill: #534340;
      }

      .cls-11 {
        fill: #76b6bf;
      }

      .cls-12 {
        fill: #f3f6da;
      }

      .cls-13 {
        fill: #919c71;
      }

      .cls-14 {
        fill: #c25a27;
      }

      .cls-15 {
        fill: #6b2c12;
      }

      .cls-16 {
        fill: #f08049;
      }

      .cls-17 {
        fill: #ce7949;
      }

      .cls-18 {
        fill: #f8bb9b;
      }

      .cls-19 {
        fill: #633828;
      }

      .cls-20 {
        fill: #ea5a1d;
      }

      .cls-21 {
        fill: #94533e;
      }

      .cls-22 {
        fill: #723520;
      }

      .cls-23 {
        fill: #fbe1d1;
      }

      .cls-24 {
        fill: #e2a07b;
      }

      .cls-25 {
        fill: #aa401b;
      }

      .cls-26 {
        fill: #85371a;
      }

      .cls-27 {
        fill: #609ca0;
      }

      .cls-28 {
        fill: #a5623f;
      }

      .cls-29 {
        fill: #542213;
      }

      .cls-30 {
        fill: #737c52;
      }

      .cls-31 {
        fill: #f4c7a9;
      }

      .cls-32 {
        fill: #ebb493;
      }
    </style>
  </defs>
  <path class="cls-10" d="M1676.52,884.53c44.87-17.65,89.74-35.3,134.61-52.95,68.35,14.75,136.69,29.51,205.04,44.26-40.37,22.66-80.74,45.31-121.11,67.97-72.84-19.76-145.69-39.52-218.53-59.28Z"/>
  <path class="cls-11" d="M1979.5,856.94c-10.75,1.31-19.42,1.13-25.31.73-9.88-.67-12.69-2-21.94-2.25-9.95-.27-14.77,1.05-24,2.06-8.28.91-20.3,1.59-35.44.19.21-1.43.74-3.37,2.25-4.88,1.35-1.35,2.1-.96,3.19-2.06,2.33-2.35.04-5.26,2.06-9.19,1.45-2.83,3.47-2.94,3.56-5.06.09-2.13-1.92-2.39-2.62-4.88-1.18-4.17,3.66-6.33,2.81-11.25-.4-2.33-1.62-2.65-2.06-6-.24-1.85.05-2.35,0-4.69-.06-2.72-.5-3.94-1.12-7.31-1.1-5.92-.34-5.39-1.17-8.81-1.27-5.19-2.94-6.02-3.7-10.51-.5-2.94-.27-5.45,0-7.12,2.69.39,6.49,1.34,10.12,3.94,2.69,1.93,2.41,2.7,4.69,4.5,5.76,4.55,9.92,1.44,17.62,5.44,5.22,2.71,5.06,5.04,8.44,5.25,4.58.29,5.45-3.98,12.19-6.38,6.91-2.46,8.24,1.23,14.62-1.5,5.48-2.34,7.45-6.32,11.81-5.62,1.71.27,3.19,1.17,4.88.38,1.61-.76,1.84-2.32,2.81-3.56,1.25-1.6,3.99-3.01,10.5-2.25,1.02,10.2-.72,14.34-2.65,16.17-.5.47-2.02,1.75-2.23,3.71-.21,1.91.98,3.16,1.69,4.5,2.29,4.3-1.43,7.32-1.5,15.56-.01,1.67.49,4.61,1.5,10.5,1.06,6.17,1.61,7.57,1.12,10.5-.45,2.67-1.26,3.66-.75,5.62.62,2.4,2.43,3.23,4.31,5.25,1.59,1.71,3.41,4.47,4.31,9.02Z"/>
  <path class="cls-27" d="M1962.78,848.66c-7.94.96-14.35.83-18.7.54-7.3-.49-9.37-1.48-16.21-1.66-7.35-.2-10.91.78-17.73,1.52-6.12.67-14.99,1.17-26.18.14.15-1.06.55-2.49,1.66-3.6,1-1,1.55-.71,2.35-1.52,1.72-1.74.03-3.89,1.52-6.79,1.07-2.09,2.57-2.17,2.63-3.74.07-1.57-1.42-1.77-1.94-3.6-.88-3.08,2.7-4.67,2.08-8.31-.3-1.72-1.2-1.96-1.52-4.43-.18-1.37.04-1.74,0-3.46-.04-2.01-.37-2.91-.83-5.4-.81-4.37-.25-3.98-.87-6.5-.94-3.84-2.17-4.44-2.74-7.76-.37-2.17-.2-4.03,0-5.26,1.99.29,4.8.99,7.48,2.91,1.99,1.42,1.78,2,3.46,3.32,4.26,3.36,7.33,1.06,13.02,4.02,3.86,2,3.74,3.72,6.23,3.88,3.39.21,4.03-2.94,9-4.71,5.1-1.82,6.09.91,10.8-1.11,4.05-1.73,5.51-4.67,8.73-4.16,1.27.2,2.36.86,3.6.28,1.19-.56,1.36-1.71,2.08-2.63.92-1.18,2.94-2.22,7.76-1.66.75,7.54-.53,10.59-1.96,11.94-.37.35-1.49,1.29-1.65,2.74-.15,1.41.72,2.34,1.25,3.32,1.69,3.18-1.06,5.41-1.11,11.5-.01,1.23.36,3.41,1.11,7.76.78,4.56,1.19,5.59.83,7.76-.33,1.97-.93,2.7-.55,4.16.46,1.77,1.8,2.38,3.19,3.88,1.18,1.27,2.52,3.3,3.19,6.66Z"/>
  <path class="cls-24" d="M1895.24,671.13c42.06-14.75,84.13-29.5,126.19-44.26-1.76,82.99-3.51,165.98-5.27,248.96-40.37,22.66-80.74,45.31-121.11,67.97.06-90.89.13-181.79.19-272.68Z"/>
  <path class="cls-7" d="M1667.3,629.24c46.71,8.58,93.43,17.17,140.14,25.75,1.23,58.86,2.45,117.72,3.68,176.58-45.75,17.83-91.49,35.65-137.24,53.48-2.19-85.27-4.39-170.54-6.58-255.81Z"/>
  <path class="cls-23" d="M1673.89,885.06c12.46,2.97,24.92,5.93,37.38,8.9-.83-85.87-1.66-171.73-2.5-257.6-13.82-2.37-27.65-4.74-41.47-7.11,2.19,85.27,4.39,170.54,6.58,255.81Z"/>
  <path class="cls-24" d="M1811.13,831.57c10.44,2.25,20.88,4.51,31.32,6.76-.54-59.07-1.07-118.14-1.61-177.2-11.13-2.05-22.26-4.09-33.39-6.14,1.23,58.86,2.45,117.72,3.68,176.58Z"/>
  <path class="cls-12" d="M1811.13,831.57c10.44,2.25,20.88,4.51,31.32,6.76-43.73,18.54-87.45,37.08-131.18,55.62-.07-7.67-.15-15.34-.22-23.01,33.36-13.12,66.72-26.25,100.08-39.37Z"/>
  <path class="cls-12" d="M1811.13,757.68c10.22,2.34,20.43,4.68,30.65,7.02-43.9,17.29-87.79,34.57-131.69,51.86.07-7.64.14-15.28.21-22.92,33.61-11.99,67.22-23.97,100.83-35.96Z"/>
  <path class="cls-12" d="M1807.01,695.59c11.39.63,22.78,1.25,34.16,1.88-17.23,4.85-35.19,9.5-53.86,13.88-26.92,6.3-52.82,11.44-77.52,15.61-.08-3.85-.16-7.71-.25-11.56,32.49-6.6,64.98-13.2,97.47-19.81Z"/>
  <path class="cls-31" d="M1742.83,720.73c-5.53.9-11.07,1.8-16.6,2.69.04-15.59.07-31.19.11-46.78,5.29-1.02,10.58-2.03,15.86-3.05.21,15.71.42,31.43.63,47.14Z"/>
  <path class="cls-32" d="M1773.99,714.44c-5.89,1.1-11.77,2.2-17.66,3.31-.28-20.66-.56-41.32-.83-61.98,6.08-1.11,12.16-2.23,18.24-3.34.08,20.67.17,41.34.25,62.01Z"/>
  <path class="cls-5" d="M1756.34,717.75c-4.5.92-9,1.84-13.5,2.76-.19-13.35-.38-26.71-.56-40.06,4.51-1.02,9.02-2.04,13.52-3.06.18,13.45.36,26.91.54,40.36Z"/>
  <path class="cls-17" d="M1790.42,710.78l-16.43,3.66c-.06-18.24-.12-36.49-.18-54.73l16.23-1.89c.12,17.65.25,35.31.37,52.96Z"/>
  <path class="cls-14" d="M1807.06,706.61c-5.54,1.39-11.09,2.78-16.63,4.16-.06-11.91-.12-23.81-.18-35.72,5.55-1.08,11.1-2.17,16.64-3.25.06,11.6.11,23.2.17,34.8Z"/>
  <path class="cls-6" d="M1841.17,697.47c-6.26,1.8-12.53,3.6-18.79,5.4-.36-15.11-.72-30.23-1.08-45.34,6.51,1.2,13.03,2.4,19.54,3.6.11,12.11.22,24.23.33,36.34Z"/>
  <path class="cls-20" d="M1822.38,702.87c-5.11,1.25-10.21,2.49-15.32,3.74-.06-12.63-.11-25.27-.17-37.9,4.87-1,9.75-2.01,14.62-3.01.29,12.39.58,24.78.87,37.17Z"/>
  <path class="cls-20" d="M1732.9,884.78c-7.21,3.06-14.42,6.11-21.63,9.17-.2-21.15-.41-42.29-.61-63.44,7.12-2.47,14.24-4.94,21.37-7.42.29,20.56.59,41.12.88,61.69Z"/>
  <path class="cls-15" d="M1754.36,875.68c-7.15,3.03-14.31,6.07-21.46,9.1-.29-20.56-.59-41.12-.88-61.69,7.2-2.41,14.4-4.82,21.6-7.23l.74,59.82Z"/>
  <path class="cls-26" d="M1776.31,866.31c-7.32,3.12-14.63,6.25-21.95,9.37-.26-20.98-.52-41.96-.77-62.95l21.13-7.31,1.59,60.89Z"/>
  <path class="cls-5" d="M1792.32,859.81c-5.34,2.17-10.68,4.34-16.01,6.51-.39-14.9-.78-29.81-1.17-44.71,5.27-1.93,10.55-3.85,15.82-5.78.45,14.66.91,29.32,1.36,43.98Z"/>
  <path class="cls-17" d="M1816.4,849.86c-8.03,3.31-16.05,6.63-24.08,9.94-.45-14.66-.91-29.32-1.36-43.98,8.24-3.18,16.48-6.37,24.72-9.55.24,14.53.48,29.06.72,43.59Z"/>
  <path class="cls-16" d="M1842.45,838.33c-2.39.98-4.79,1.97-7.18,2.95-.39-23.19-.77-46.38-1.16-69.56,2.57-1.06,5.14-2.13,7.71-3.19.21,23.27.42,46.54.63,69.81Z"/>
  <path class="cls-2" d="M1732.02,823.1l-19.11-7.69,18.09-6.89c7.54,2.45,15.08,4.9,22.62,7.35-7.2,2.41-14.4,4.82-21.6,7.23Z"/>
  <path class="cls-2" d="M1710.65,830.51c-.19-4.65-.38-9.3-.56-13.96l2.82-1.15,19.11,7.69c-7.12,2.47-14.24,4.94-21.37,7.42Z"/>
  <path class="cls-6" d="M1835.27,841.28l-18.86,8.58c-.24-14.53-.48-29.06-.72-43.59,6.29-2.58,12.58-5.16,18.88-7.74.24,14.25.47,28.51.71,42.76Z"/>
  <path class="cls-2" d="M1815.68,806.27l-21.57-5.48c5.44-1.81,10.88-3.61,16.32-5.42,8.04,1.05,16.08,2.11,24.12,3.16-6.29,2.58-12.58,5.16-18.88,7.74Z"/>
  <path class="cls-2" d="M1726.34,676.7c-.02-1.75-.03-3.5-.04-5.27,0-1.2-.01-2.39-.01-3.59,5.3,1.91,10.61,3.83,15.91,5.74-5.29,1.04-10.58,2.07-15.86,3.11Z"/>
  <path class="cls-2" d="M1755.5,656.41l-12.79-3.12,15.05-2.18,15.97,1.32-18.24,3.98Z"/>
  <path class="cls-2" d="M1806.88,671.81c-4.64-1.5-9.28-3.01-13.91-4.51,4.92-.86,9.85-1.72,14.77-2.58,4.63,1.17,9.26,2.34,13.88,3.51l-14.74,3.58Z"/>
  <path class="cls-2" d="M1753.59,812.74c-5.56-1.88-11.12-3.75-16.69-5.63,5.66-2.02,11.32-4.03,16.98-6.05l20.84,4.36-21.13,7.31Z"/>
  <path class="cls-2" d="M1790.96,815.82c-5.39-2.48-10.78-4.96-16.16-7.45,6.44-2.53,12.88-5.06,19.32-7.59l21.57,5.48c-8.24,3.18-16.48,6.37-24.72,9.55Z"/>
  <path class="cls-4" d="M1834.11,771.72c-2.36-.37-4.72-.74-7.08-1.11,2.56-.98,5.12-1.95,7.68-2.93,2.37.28,4.74.56,7.11.85-2.57,1.06-5.14,2.13-7.71,3.19Z"/>
  <path class="cls-2" d="M1709.14,666.72c0-1.24,0-2.48,0-3.73,0-2.57-.03-5.13-.07-7.66,5.72,2,11.44,4,17.16,6-5.7,1.8-11.4,3.59-17.09,5.39Z"/>
  <path class="cls-2" d="M1742.27,680.44c-.02-2.29-.04-4.57-.07-6.86,4.53,1.27,9.06,2.53,13.59,3.8-4.51,1.02-9.02,2.04-13.52,3.06Z"/>
  <path class="cls-29" d="M1753.59,812.74c-5.56-1.88-11.12-3.75-16.69-5.63,0,1.12,0,2.24,0,3.36,5.58,1.8,11.15,3.59,16.73,5.39-.01-1.04-.03-2.09-.04-3.13Z"/>
  <path class="cls-2" d="M1773.81,659.71l-.04-6.44c5.42,1.52,10.85,3.03,16.27,4.55-5.41.63-10.82,1.26-16.23,1.89Z"/>
  <path class="cls-18" d="M1755.79,677.39l-13.02-3.62c-.02-6.83-.03-13.65-.05-20.48,4.26,1.04,8.52,2.08,12.79,3.12.1,6.99.19,13.99.29,20.98Z"/>
  <path class="cls-8" d="M1821.62,668.23c-4.63-1.17-9.26-2.34-13.88-3.51-.1-3.24-.19-6.48-.29-9.72,4.62.85,9.23,1.69,13.85,2.54.11,3.57.22,7.13.33,10.7Z"/>
  <path class="cls-1" d="M1834.11,771.72c-2.36-.37-4.72-.74-7.08-1.11-1.07.45-2.76,1.13-4.88,1.86-2.96,1.02-3.83,1.12-5.74,1.88-4.72,1.86-5.64,2.49-6.08,3.38-.4.81-.35,1.47-.29,2.81.3,7.2-.14,5.11,0,8.3.07,1.72.19,3.93.4,6.53,8.04,1.05,16.08,2.11,24.12,3.16-.15-8.93-.3-17.87-.45-26.8Z"/>
  <path class="cls-2" d="M1790.24,675.06l-.1-7.29c.94-.16,1.88-.31,2.83-.47,4.64,1.5,9.28,3.01,13.91,4.51-5.55,1.08-11.1,2.17-16.64,3.25Z"/>
  <path class="cls-2" d="M1775.14,821.6c-.07-1.95-.14-3.89-.21-5.84-.05-2.46-.09-4.92-.14-7.38,5.39,2.48,10.78,4.96,16.16,7.45-5.27,1.93-10.55,3.85-15.82,5.78Z"/>
  <path class="cls-31" d="M1726.84,810.44c-5.58,2.04-11.17,4.08-16.75,6.12-.08-23.28-.16-46.56-.25-69.84,5.5-1.73,11-3.47,16.5-5.2.16,22.98.33,45.95.49,68.93Z"/>
  <path class="cls-3" d="M1742.88,804.84c-5.35,1.87-10.69,3.73-16.04,5.6-.13-17.85-.26-35.71-.38-53.56,5.29-1.04,10.58-2.07,15.86-3.11.19,17.02.37,34.05.56,51.07Z"/>
  <path class="cls-19" d="M1774.35,793.38c-6.02,2.16-12.04,4.32-18.06,6.49-.31-21.06-.62-42.11-.93-63.17,6.17-1.36,12.34-2.72,18.5-4.08.16,20.25.33,40.51.49,60.76Z"/>
  <path class="cls-28" d="M1756.28,799.87c-4.47,1.66-8.94,3.32-13.4,4.97-.17-14.74-.33-29.47-.5-44.21,4.43-1,8.86-2.01,13.29-3.01.2,14.08.41,28.17.61,42.25Z"/>
  <path class="cls-9" d="M1790.54,787.56c-5.4,1.94-10.8,3.88-16.19,5.82-.14-17.37-.28-34.73-.42-52.1,5.48-.77,10.96-1.53,16.44-2.3.06,16.19.11,32.39.17,48.58Z"/>
  <path class="cls-26" d="M1807.17,781.64c-5.54,1.98-11.08,3.95-16.63,5.93-.06-10.77-.12-21.54-.19-32.32,5.55-1.08,11.1-2.17,16.64-3.25.06,9.88.11,19.76.17,29.64Z"/>
  <path class="cls-15" d="M1841.81,768.53c-6.42,2.51-12.84,5.03-19.26,7.54l-1.22-49.11c6.69-1.41,13.38-2.81,20.07-4.22l.41,45.79Z"/>
  <path class="cls-22" d="M1822.55,776.07c-5.13,1.86-10.25,3.71-15.38,5.57-.06-9.88-.11-19.76-.17-29.64,4.95-1.25,9.91-2.49,14.86-3.74.23,9.27.46,18.54.69,27.81Z"/>
  <path class="cls-2" d="M1726.46,756.88c-.02-1.75-.03-3.5-.04-5.27,0-1.2-.01-2.39-.01-3.59,5.3,1.91,10.61,3.83,15.91,5.74-5.29,1.04-10.58,2.07-15.86,3.11Z"/>
  <path class="cls-2" d="M1755.36,736.69c-4.17-1.07-8.35-2.15-12.52-3.22,5.02-.73,10.04-1.45,15.05-2.18,5.32.44,10.65.88,15.97,1.32-6.17,1.36-12.34,2.72-18.5,4.08Z"/>
  <path class="cls-2" d="M1807,752c-4.64-1.5-9.28-3.01-13.91-4.51,4.92-.86,9.85-1.72,14.77-2.58,4.63,1.17,9.26,2.34,13.88,3.51l-14.74,3.58Z"/>
  <path class="cls-2" d="M1709.84,746.72c-.01-1.2-.03-2.56-.04-3.76-.03-2.48-.05-4.95-.07-7.42,5.54,1.99,11.07,3.99,16.61,5.98-5.5,1.73-11,3.47-16.5,5.2Z"/>
  <path class="cls-2" d="M1742.38,760.63l-.07-6.86h0c4.45,1.28,8.9,2.57,13.35,3.85-4.43,1-8.86,2.01-13.29,3.01Z"/>
  <path class="cls-2" d="M1773.93,741.28c0-1.25,0-2.5-.01-3.74,5.41.5,10.83.99,16.24,1.49-5.41.75-10.82,1.5-16.23,2.25Z"/>
  <path class="cls-21" d="M1755.84,757.68c-4.26-1.23-8.52-2.47-12.79-3.7-.07-6.84-.15-13.67-.22-20.51,4.17,1.07,8.35,2.15,12.52,3.22.16,7,.32,13.99.48,20.99Z"/>
  <path class="cls-25" d="M1821.91,748.4l-13.57-3.34c-.16-6.69-.32-13.38-.47-20.07,4.49.66,8.98,1.31,13.47,1.97.19,7.15.38,14.29.57,21.44Z"/>
  <path class="cls-2" d="M1790.35,755.25c.02-2.44.03-4.88.05-7.31.89-.15,1.79-.3,2.68-.45,4.64,1.5,9.28,3.01,13.91,4.51-5.55,1.08-11.1,2.17-16.64,3.25Z"/>
  <path class="cls-2" d="M1821.33,726.96c-4.49-.66-8.98-1.31-13.47-1.97,5.02-1.27,10.04-2.53,15.05-3.8,6.16.52,12.32,1.03,18.48,1.55-6.69,1.41-13.38,2.81-20.07,4.22Z"/>
  <path class="cls-16" d="M1726.23,723.42c-5.48,1.18-10.96,2.36-16.45,3.54-.22-20.84-.43-41.68-.65-62.53,5.7-1.51,11.4-3.02,17.09-4.53,0,21.17,0,42.34,0,63.51Z"/>
  <path class="cls-23" d="M1841.17,697.47l-131.39,29.49c-.02,2.86-.03,5.72-.05,8.57,43.81-9.66,87.61-19.31,131.42-28.97,0-3.03.01-6.06.02-9.09Z"/>
  <path class="cls-23" d="M1841.81,768.53c-43.91,15.13-87.82,30.25-131.73,45.38-.02,2.94-.04,5.88-.06,8.81,43.96-15.45,87.93-30.9,131.89-46.35-.03-2.61-.06-5.23-.1-7.84Z"/>
  <path class="cls-23" d="M1842.45,838.33c-43.73,18.54-87.45,37.08-131.18,55.62-.04-2.37-.08-4.74-.12-7.12,43.82-18.25,87.64-36.49,131.45-54.74-.05,2.08-.1,4.16-.15,6.24Z"/>
  <path class="cls-13" d="M1891.85,859.31c-7.28,1.03-13.15.89-17.14.57-6.69-.53-8.59-1.58-14.86-1.78-6.74-.21-10.01.83-16.25,1.63-5.61.72-13.74,1.25-24,.15.14-1.13.5-2.66,1.52-3.85.92-1.06,1.42-.76,2.16-1.63,1.58-1.86.03-4.15,1.4-7.25.98-2.23,2.35-2.32,2.41-3.99.06-1.68-1.3-1.89-1.78-3.85-.8-3.29,2.48-4.99,1.9-8.88-.27-1.84-1.1-2.09-1.4-4.73-.16-1.46.03-1.86,0-3.7-.04-2.15-.34-3.11-.76-5.77-.74-4.67-.23-4.26-.79-6.95-.86-4.1-1.99-4.75-2.51-8.29-.34-2.32-.18-4.3,0-5.62,1.82.31,4.4,1.05,6.86,3.11,1.82,1.52,1.63,2.13,3.17,3.55,3.9,3.59,6.72,1.14,11.94,4.29,3.54,2.14,3.43,3.98,5.71,4.14,3.11.23,3.69-3.14,8.25-5.03,4.68-1.94,5.58.97,9.9-1.18,3.71-1.85,5.05-4.98,8-4.44,1.16.21,2.16.92,3.3.3,1.09-.6,1.24-1.83,1.9-2.81.85-1.26,2.7-2.37,7.11-1.78.69,8.05-.49,11.31-1.79,12.76-.34.37-1.37,1.38-1.51,2.92-.14,1.51.66,2.49,1.14,3.55,1.55,3.39-.97,5.78-1.02,12.28,0,1.31.33,3.64,1.02,8.28.72,4.87,1.09,5.97.76,8.28-.3,2.11-.85,2.89-.51,4.44.42,1.89,1.65,2.55,2.92,4.14,1.08,1.35,2.31,3.53,2.92,7.12Z"/>
  <path class="cls-30" d="M1880.53,852.78c-5.38.76-9.71.66-12.66.42-4.94-.39-6.35-1.16-10.97-1.31-4.98-.16-7.39.61-12.01,1.2-4.14.53-10.15.92-17.73.11.1-.84.37-1.96,1.13-2.84.68-.79,1.05-.56,1.59-1.2,1.17-1.37.02-3.07,1.03-5.35.73-1.65,1.74-1.71,1.78-2.95.04-1.24-.96-1.39-1.31-2.84-.59-2.43,1.83-3.69,1.41-6.56-.2-1.36-.81-1.54-1.03-3.5-.12-1.08.03-1.37,0-2.73-.03-1.59-.25-2.3-.56-4.26-.55-3.45-.17-3.14-.59-5.13-.64-3.03-1.47-3.51-1.85-6.12-.25-1.71-.14-3.18,0-4.15,1.35.23,3.25.78,5.07,2.29,1.35,1.12,1.21,1.58,2.35,2.62,2.88,2.65,4.96.84,8.82,3.17,2.61,1.58,2.53,2.94,4.22,3.06,2.29.17,2.73-2.32,6.1-3.72,3.46-1.44,4.12.72,7.32-.87,2.74-1.36,3.73-3.68,5.91-3.28.86.16,1.6.68,2.44.22.8-.44.92-1.35,1.41-2.08.63-.93,1.99-1.75,5.25-1.31.51,5.95-.36,8.36-1.32,9.42-.25.28-1.01,1.02-1.11,2.16-.1,1.11.49,1.84.84,2.62,1.14,2.51-.72,4.27-.75,9.07,0,.97.25,2.69.75,6.12.53,3.6.81,4.41.56,6.12-.22,1.56-.63,2.13-.38,3.28.31,1.4,1.22,1.88,2.16,3.06.8,1,1.7,2.61,2.16,5.26Z"/>
</svg>