<svg width="501" height="288" viewBox="0 0 501 288" fill="none" xmlns="http://www.w3.org/2000/svg">
<g filter="url(#filter0_f_508_2511)">
<ellipse cx="243.819" cy="243.362" rx="227.241" ry="27.6374" fill="#141414" fill-opacity="0.5"/>
</g>
<path d="M249.052 16.4262H322.562L314.435 0H257.179L249.052 16.4262Z" fill="#EFD800"/>
<path d="M107.517 16.4262H181.027L172.9 0H115.644L107.517 16.4262Z" fill="#EFD800"/>
<path d="M402.141 243.391C383.548 243.391 368.474 228.318 368.474 209.724C368.474 191.13 383.548 176.057 402.141 176.057C420.735 176.057 435.809 191.13 435.809 209.724C435.809 228.318 420.735 243.391 402.141 243.391Z" fill="#333333"/>
<path d="M402.143 229.453C391.247 229.453 382.414 220.62 382.414 209.725C382.414 198.829 391.247 189.996 402.143 189.996C413.038 189.996 421.871 198.829 421.871 209.725C421.871 220.62 413.038 229.453 402.143 229.453Z" fill="#A5A5A5"/>
<path d="M18.1401 8.14648H421.16V222.373H18.1401V8.14648Z" fill="#E8DC07"/>
<path d="M421.162 8.14648H471.77V222.373H421.162V8.14648Z" fill="#7D7704"/>
<path d="M466.688 23.5898C454.4 23.8043 442.091 24.0187 429.804 24.2332V133.384C442.091 133.276 454.4 133.148 466.688 133.04V23.5898Z" fill="#1F2A33"/>
<path d="M471.836 142.816C320.591 142.838 169.324 142.859 18.0793 142.902V156.112C169.324 156.09 320.591 156.09 471.836 156.069V142.816Z" fill="#0C5B99"/>
<path opacity="0.29" d="M471.836 142.816H421.164V156.112C438.062 156.09 454.959 156.09 471.836 156.069V142.816Z" fill="black"/>
<path d="M471.836 156.113C320.591 156.178 169.324 156.242 18.0793 156.306V189.78C169.324 189.738 320.591 189.716 471.836 189.673V156.113Z" fill="#EFEFEF"/>
<path opacity="0.29" d="M471.836 156.113H421.164V189.78C438.062 189.738 454.959 189.716 471.836 189.673V156.113Z" fill="black"/>
<path d="M466.688 23.5898C454.4 23.8043 442.091 24.0187 429.804 24.2332V133.384C442.091 133.276 454.4 133.148 466.688 133.04V23.5898Z" stroke="#353535" stroke-width="8" stroke-miterlimit="10"/>
<path d="M24.7257 26.5898H329.875V129.95H24.7257V26.5898Z" fill="#1F2A33"/>
<path d="M24.7257 26.5898H329.875V129.95H24.7257V26.5898Z" stroke="#353535" stroke-width="8" stroke-miterlimit="10"/>
<path d="M335.453 26.5898H402.145V222.374H335.453V26.5898Z" fill="#1F2A33"/>
<path d="M335.453 26.5898H402.145V222.374H335.453V26.5898Z" stroke="#353535" stroke-width="8" stroke-miterlimit="10"/>
<path d="M232.089 25.9473H233.805V130.594H232.089V25.9473Z" fill="#353535"/>
<path d="M113.292 25.9473H115.008V130.594H113.292V25.9473Z" fill="#353535"/>
<path d="M293.848 257.116C275.255 257.116 260.181 242.042 260.181 223.448C260.181 204.855 275.255 189.781 293.848 189.781C312.442 189.781 327.516 204.855 327.516 223.448C327.516 242.042 312.442 257.116 293.848 257.116Z" fill="#494949"/>
<path d="M293.846 243.176C282.95 243.176 274.117 234.343 274.117 223.447C274.117 212.552 282.95 203.719 293.846 203.719C304.741 203.719 313.574 212.552 313.574 223.447C313.574 234.343 304.741 243.176 293.846 243.176Z" fill="#C1C1C1"/>
<path d="M72.9773 257.116C54.3834 257.116 39.3101 242.042 39.3101 223.448C39.3101 204.855 54.3834 189.781 72.9773 189.781C91.5712 189.781 106.645 204.855 106.645 223.448C106.645 242.042 91.5712 257.116 72.9773 257.116Z" fill="#494949"/>
<path d="M72.9746 243.176C62.0788 243.176 53.246 234.343 53.246 223.447C53.246 212.552 62.0788 203.719 72.9746 203.719C83.8704 203.719 92.7031 212.552 92.7031 223.447C92.7031 234.343 83.8704 243.176 72.9746 243.176Z" fill="#C1C1C1"/>
<path opacity="0.67" d="M300.193 40.0359C302.53 39.1352 304.868 38.2132 307.227 37.3125C287.326 61.7802 267.405 86.2693 247.505 110.758C245.36 111.123 243.216 111.488 241.072 111.852C260.779 87.8991 280.486 63.9675 300.193 40.0359Z" fill="#5A859B"/>
<path opacity="0.67" d="M304.06 49.0437C306.397 48.1431 308.735 47.221 311.094 46.3203C291.194 70.788 271.272 95.2771 251.372 119.766C249.228 120.131 247.083 120.495 244.939 120.86C264.646 96.9069 284.353 72.9753 304.06 49.0437Z" fill="#5A859B"/>
<path opacity="0.67" d="M386.66 48.7417C388.783 47.9482 390.906 47.1762 393.051 46.3828C376.153 69.0707 359.276 91.7585 342.4 114.446C340.427 114.725 338.433 115.004 336.46 115.261C353.186 93.1095 369.913 70.9148 386.66 48.7417Z" fill="#5A859B"/>
<path opacity="0.67" d="M390.926 57.4702C393.049 56.6767 395.172 55.9048 397.316 55.1113C380.418 77.7992 363.542 100.487 346.665 123.175C344.693 123.454 342.698 123.732 340.725 123.99C357.43 101.838 374.178 79.6648 390.926 57.4702Z" fill="#5A859B"/>
<path opacity="0.67" d="M188.474 41.7527C190.812 40.852 193.149 39.9299 195.508 39.0293C175.608 63.497 155.686 87.9861 135.786 112.475C133.642 112.84 131.497 113.204 129.353 113.569C149.06 89.6159 168.767 65.6843 188.474 41.7527Z" fill="#5A859B"/>
<path opacity="0.67" d="M192.334 50.7586C194.671 49.8579 197.008 48.9358 199.367 48.0352C179.467 72.5029 159.546 96.992 139.645 121.481C137.501 121.846 135.357 122.21 133.212 122.575C152.919 98.6217 172.626 74.6901 192.334 50.7586Z" fill="#5A859B"/>
<path opacity="0.67" d="M89.189 39.1785C91.5264 38.2778 93.8638 37.3557 96.2227 36.4551C76.3225 60.9228 56.401 85.4119 36.5009 109.901C34.3565 110.266 32.2121 110.63 30.0676 110.995C49.7747 87.0417 69.4819 63.1101 89.189 39.1785Z" fill="#5A859B"/>
<path opacity="0.67" d="M93.0484 48.1843C95.3858 47.2837 97.7232 46.3616 100.082 45.4609C80.1819 69.9286 60.2603 94.4178 40.3602 118.907C38.2158 119.271 36.0714 119.636 33.927 120.001C53.6341 96.0475 73.3413 72.1159 93.0484 48.1843Z" fill="#5A859B"/>
<path d="M498.427 29.8066H489.849C488.434 29.8066 487.276 30.9646 487.276 32.3799V69.2637C487.276 70.6791 488.434 71.837 489.849 71.837H498.427C499.842 71.837 501 70.6791 501 69.2637V32.3799C501 30.9646 499.842 29.8066 498.427 29.8066Z" fill="#C1B30C"/>
<path d="M471.837 33.2383H491.352V37.956H471.837V33.2383Z" fill="#C1B30C"/>
<path d="M440.099 30.8789H431.521C430.106 30.8789 428.948 32.0369 428.948 33.4522V70.336C428.948 71.7513 430.106 72.9093 431.521 72.9093H440.099C441.514 72.9093 442.672 71.7513 442.672 70.336V33.4522C442.672 32.0369 441.514 30.8789 440.099 30.8789Z" fill="#E0CC12"/>
<path d="M421.232 32.8086H440.746V37.5263H421.232V32.8086Z" fill="#E0CC12"/>
<defs>
<filter id="filter0_f_508_2511" x="0.178125" y="199.325" width="487.28" height="88.0754" filterUnits="userSpaceOnUse" color-interpolation-filters="sRGB">
<feFlood flood-opacity="0" result="BackgroundImageFix"/>
<feBlend mode="normal" in="SourceGraphic" in2="BackgroundImageFix" result="shape"/>
<feGaussianBlur stdDeviation="8.2" result="effect1_foregroundBlur_508_2511"/>
</filter>
</defs>
</svg>
