<?xml version="1.0" encoding="UTF-8"?>
<svg id="manette" xmlns="http://www.w3.org/2000/svg" viewBox="0 0 3030.96 1234.19">
  <defs>
    <style>
      .cls-1 {
        fill: #fff1b6;
      }

      .cls-2 {
        fill: #fff;
      }

      .cls-3 {
        fill: #4d4c4c;
      }

      .cls-3, .cls-4, .cls-5, .cls-6 {
        stroke: #1d1d1b;
        stroke-miterlimit: 10;
        stroke-width: .25px;
      }

      .cls-4 {
        fill: #d6af0d;
      }

      .cls-5 {
        fill: #383838;
      }

      .cls-6 {
        fill: #2d2c2c;
      }
    </style>
  </defs>
  <path class="cls-4" d="M2191.67,751.98l21.54,3.21-4.89,35.82c-.13.38-.43,1.12-1.11,1.8-.74.74-1.53,1-1.91,1.1-6.66-1.02-13.32-2.03-19.98-3.05l6.36-38.88Z"/>
  <path class="cls-6" d="M2193.07,754.68c5.97.89,11.93,1.78,17.9,2.67l-2.13,15.43c-.09.43-.28,1.02-.77,1.37-.53.39-1.17.3-1.45.26-1.3-.19-7.66-1.21-16.38-2.68.94-5.68,1.88-11.37,2.82-17.05Z"/>
  <polygon class="cls-5" points="2191.2 775.92 2190.92 777.78 2189.38 777.55 2189.07 779.6 2190.62 779.83 2190.34 781.67 2192.21 781.95 2192.49 780.1 2194.2 780.36 2194.5 778.31 2192.74 778.05 2193.13 776.2 2191.2 775.92"/>
  <path class="cls-5" d="M2202.12,779.55c.07,0,.65,0,1.01.51.28.39.25.82.24.93,0,.15-.04.56-.33.96-.32.45-.75.58-.88.62-.51.09-1.02-.1-1.31-.51-.34-.47-.25-1.02-.23-1.11,0-.09,0-.63.44-1.04.45-.43.99-.37,1.07-.36Z"/>
  <path class="cls-5" d="M2206.13,777.91c.08,0,.59-.03.99.37.29.3.35.65.36.78.02.09.16.74-.25,1.34-.39.57-.97.66-1.07.68-.09,0-.62-.03-.99-.51-.42-.54-.28-1.19-.26-1.26,0-.13.04-.5.31-.85.34-.45.81-.53.92-.55Z"/>
  <path class="cls-3" d="M2194.64,756.58c4.63.65,9.26,1.3,13.9,1.96-.69,4.65-1.39,9.3-2.08,13.95-4.61-.79-9.22-1.57-13.84-2.36.67-4.52,1.35-9.03,2.02-13.55Z"/>
  <ellipse class="cls-5" cx="2195.76" cy="786.84" rx=".53" ry="1.25" transform="translate(1093.75 2842.57) rotate(-81.52)"/>
  <ellipse class="cls-5" cx="2199.21" cy="787.28" rx=".54" ry="1.29" transform="translate(1096.25 2846.36) rotate(-81.52)"/>
  <g id="Calque_55" data-name="Calque 55">
    <path class="cls-2" d="M2194.33,758.64c.03-.22.06-.45.09-.67l1.74-1.08c.26.03.51.07.77.1-.86.55-1.73,1.1-2.59,1.65Z"/>
    <path class="cls-2" d="M2194.1,760.03c.04-.24.08-.48.12-.72,1.15-.74,2.3-1.48,3.45-2.21.29.04.58.08.86.12-1.48.94-2.95,1.88-4.43,2.81Z"/>
    <path class="cls-2" d="M2193.58,770.14c-.31-.06-.63-.11-.94-.17,4.82-3.84,9.64-7.69,14.47-11.53.39.05.79.11,1.18.16-4.9,3.85-9.81,7.7-14.71,11.55Z"/>
    <path class="cls-2" d="M2195.81,770.5c-.44-.08-.89-.15-1.33-.23,4.54-3.58,9.09-7.16,13.63-10.73-.06.41-.11.82-.17,1.23l-12.14,9.73Z"/>
    <rect class="cls-1" x="2190.03" y="753.56" width=".86" height="21.86" transform="translate(154.09 -347.15) rotate(9.39)"/>
    <rect class="cls-1" x="2200.05" y="750.41" width=".86" height="7.52" transform="translate(3270.86 -1311.06) rotate(98.48)"/>
  </g>
</svg>