<?xml version="1.0" encoding="UTF-8"?>
<svg id="lit" xmlns="http://www.w3.org/2000/svg" viewBox="0 0 3030.96 1234.19">
  <defs>
    <style>
      .cls-1 {
        fill: #ce6b39;
      }

      .cls-2 {
        fill: #f4d2b3;
      }

      .cls-3 {
        fill: #f9d1b9;
      }

      .cls-4 {
        fill: #6d564a;
      }

      .cls-5 {
        fill: #76b6bf;
      }

      .cls-6 {
        fill: #997362;
      }

      .cls-7 {
        fill: #c5d8a4;
      }

      .cls-8 {
        fill: #919c71;
      }

      .cls-9 {
        fill: #c25a27;
      }

      .cls-10 {
        fill: #6b2c12;
      }

      .cls-11 {
        fill: #f08049;
      }

      .cls-12 {
        fill: #ea5a1d;
      }

      .cls-13 {
        fill: #fbe1d1;
      }

      .cls-14 {
        fill: #e2a07b;
      }

      .cls-15 {
        fill: #ce8059;
      }
    </style>
  </defs>
  <path class="cls-8" d="M1667.3,629.24c46.95-7.9,93.91-15.81,140.86-23.71l213.27,21.34c-42.06,14.75-84.13,29.5-126.19,44.26-75.98-13.96-151.96-27.92-227.94-41.88Z"/>
  <path class="cls-5" d="M1667.3,629.24c46.54-7.83,93.09-15.67,139.63-23.5-.1-12.45-.2-24.9-.31-37.35-47.03,3.37-94.05,6.74-141.08,10.11.59,16.92,1.17,33.83,1.76,50.75Z"/>
  <path class="cls-7" d="M1667.3,629.24c75.98,13.96,151.96,27.92,227.94,41.88-.06-7.73-.13-15.45-.19-23.18-76.06-11.77-152.13-23.55-228.19-35.32.15,5.54.29,11.08.44,16.61Z"/>
  <path class="cls-7" d="M1806.93,605.21c29.44,4.76,58.89,9.52,88.33,14.28,0-5.76,0-11.52,0-17.27-29.47-3.55-58.95-7.1-88.42-10.65.03,4.55.06,9.1.09,13.64Z"/>
  <path class="cls-13" d="M1883.79,647.36c-84.78-12.53-205.34-30.58-213.57-33.3-1.14-.38-4.44-1.47-4.43-2.88.01-1.31,2.86-2.36,5.4-3.06,63.93-9.35,111.27-15.92,123.56-17.25,5.63-.61,10.05-.79,13.22-.84,7.49-.12,14.29.36,20.25,1.12l177.75,18.84c14.55.85,16.82,2.22,16.88,3.09.06.85-1.92,2.4-14.49,4.89-36.14,10.09-72.28,20.17-108.42,30.26-1.62.37-3.55.67-5.75.73-4.37.12-7.96-.77-10.41-1.61Z"/>
  <path class="cls-3" d="M2020.58,627.9c-6.96,2.44-13.91,4.88-20.87,7.32-.09-4.91-.19-9.82-.28-14.74,6.06-1.81,9.6-2.65,11.77-3.08,1.1-.22,3.75-.71,5.77-1.39.92-.31,1.55-.61,2.77-.86.75-.16,1.02-.18,1.42-.38.98-.48,1.5-1.48,1.79-2.33-.79,5.15-1.58,10.31-2.37,15.46Z"/>
  <g>
    <path class="cls-10" d="M1998.99,611.49c-5.6.2-10.05-.29-13.07-.77-5.06-.81-6.44-1.64-11.19-2.2-5.11-.6-7.66-.12-12.45,0-4.31.1-10.52-.09-18.25-1.52.18-.75.54-1.76,1.39-2.49.76-.65,1.13-.42,1.74-.95,1.31-1.14.27-2.79,1.5-4.79.88-1.44,1.93-1.4,2.07-2.53.15-1.13-.88-1.36-1.12-2.71-.41-2.27,2.18-3.19,1.98-5.85-.1-1.26-.71-1.48-.78-3.28-.04-.99.14-1.25.22-2.49.1-1.45-.07-2.11-.23-3.94-.28-3.2.08-2.88-.19-4.73-.41-2.82-1.23-3.33-1.41-5.75-.12-1.58.12-2.91.34-3.79,1.37.33,3.28,1.01,5.03,2.56,1.29,1.15,1.11,1.55,2.2,2.61,2.75,2.68,5.04,1.22,8.82,3.7,2.56,1.68,2.37,2.91,4.1,3.18,2.35.36,3-1.86,6.58-2.83,3.67-.99,4.18,1.03,7.6-.13,2.93-.99,4.14-3.01,6.35-2.45.87.22,1.59.77,2.49.42.86-.33,1.06-1.15,1.62-1.76.72-.79,2.19-1.42,5.51-.71.04,5.47-1.05,7.58-2.13,8.47-.28.23-1.12.84-1.32,1.87-.2,1.01.35,1.72.66,2.47.97,2.39-1.08,3.82-1.51,8.2-.09.88.03,2.47.28,5.65.25,3.33.47,4.09.08,5.63-.36,1.4-.82,1.89-.65,2.95.21,1.3,1.1,1.83,1.97,2.99.74.98,1.54,2.53,1.79,4.99Z"/>
    <path class="cls-11" d="M1990.77,606.33c-4.13.15-7.42-.22-9.65-.57-3.74-.6-4.76-1.21-8.26-1.63-3.78-.44-5.66-.09-9.2,0-3.18.08-7.77-.07-13.48-1.13.13-.56.4-1.3,1.03-1.84.56-.48.83-.31,1.28-.7.97-.85.2-2.06,1.11-3.54.65-1.06,1.42-1.04,1.53-1.87.11-.83-.65-1-.83-2-.3-1.68,1.61-2.36,1.46-4.32-.07-.93-.52-1.09-.57-2.42-.03-.73.1-.92.16-1.84.07-1.07-.05-1.56-.17-2.91-.21-2.36.06-2.13-.14-3.5-.3-2.08-.91-2.46-1.04-4.25-.09-1.17.09-2.15.25-2.8,1.01.24,2.42.74,3.71,1.89.96.85.82,1.14,1.63,1.92,2.03,1.98,3.72.9,6.51,2.73,1.89,1.24,1.75,2.15,3.03,2.35,1.73.27,2.21-1.38,4.86-2.09,2.71-.73,3.09.76,5.61-.09,2.16-.73,3.06-2.23,4.69-1.81.64.16,1.17.57,1.84.31.64-.24.78-.85,1.19-1.3.53-.58,1.62-1.05,4.07-.53.03,4.04-.77,5.6-1.57,6.26-.21.17-.83.62-.98,1.38-.15.74.26,1.27.48,1.82.72,1.77-.8,2.83-1.11,6.06-.06.65.03,1.83.2,4.17.19,2.46.35,3.02.06,4.16-.26,1.03-.61,1.39-.48,2.18.15.96.81,1.35,1.46,2.21.55.73,1.14,1.87,1.32,3.69Z"/>
  </g>
  <path class="cls-5" d="M1895.58,671.57c35.05-10.54,70.09-21.09,105.14-31.63-.09-17.68-.18-35.35-.27-53.03-34.95,5.06-69.89,10.12-104.84,15.18,0,23.16-.02,46.31-.03,69.47Z"/>
  <path class="cls-12" d="M1660.54,633.21c5.93,4.78,11.19,7.63,14.91,9.35,5.82,2.7,8.96,3.15,10.69,6.47,1.43,2.74-.01,5.65,2.25,11.25.36.89.62,1.52,1.05,2.25,2.59,4.29,7.88,5.69,11.04,6.19.32-15.44.54-26.76.42-30.8-.02-.6-.07-1.9.77-2.74,1.91-1.91,6.06.93,7.95-.63,1.37-1.13.46-3.69-.28-8.09-1.33-7.85.18-7.96-1.2-18.7-.83-6.48-1.23-5.31-1.48-9.07-.36-5.41-.86-12.09,3.09-17.72,3.13-4.46,7.69-6.57,10.69-7.59l-17.44-9.56c-7.22-1.67-11.48-.15-13.78,1.12-4.76,2.64-5.95,6.97-13.22,27.56-2.77,7.86-3.21,8.95-4.01,11.19-1.2,3.34-2.02,5.8-2.17,6.25-.8,2.37-3.01,8.14-9.28,23.27Z"/>
  <path class="cls-9" d="M1602.48,692.91c21.81,3.74,28.91,4.07,29.18,2.95.12-.5-1.14-1.19-.91-1.69.43-.97,5.44.78,10.48,1.41,2.87.35,7.09.51,12.44-.64,6.64-17.83,13.27-35.66,19.91-53.5-19.76,9.19-39.52,18.37-59.27,27.56-.89,3.84-2.44,8.79-5.27,14.13-2.13,4.01-4.46,7.26-6.54,9.77Z"/>
  <path class="cls-9" d="M1651.91,699.66c7.5.64,10.85-1.14,12.52-2.95.82-.9,1.62-2.22,3.52-3.37,2.56-1.56,5.12-1.57,5.98-1.62,2.95-.15,7.6-1.75,14.91-8.37,4.01-1.87,5.37-3.94,5.84-5.55.4-1.4.04-2.15.84-3.37,1.03-1.57,2.46-1.59,4.29-3.45.83-.84,1.37-1.68,1.69-2.25-4.53-1.03-10.28-3.14-12.45-7.95-1.78-3.96.14-6.93-1.52-10.88-1.24-2.96-4.53-6.58-13.94-8.74-7.22,19.5-14.44,39.01-21.67,58.51Z"/>
  <path class="cls-1" d="M1614.04,670.51c16.14,2.81,21.81.72,23.52-2.33,1.72-3.06-.68-6.8,1.55-8.72,3.28-2.82,10.3,3.78,15.33.77,2.77-1.65,1.57-4.21,4.43-8.23,5.29-7.44,14.97-6.53,15.35-9.7.19-1.58-1.96-4.09-12.67-8.09,5.3-11.88,8.82-21.66,11.08-28.46,2.37-7.15,4.53-14.57,9.01-25.31,2.03-4.88,3.88-8.83,5.16-11.47,1.7-1.95,4.07-3.95,7.23-4.79,6.8-1.81,13.24,2.77,13.37,2.49.12-.27-6.07-4.85-15.27-6.43-6.11-1.05-11.34-.39-14.84.35-1.19.51-2.87,1.32-4.73,2.56-5.51,3.7-8.39,8.43-12.15,15.06-4.05,7.15-6.07,10.73-7.88,14.44-6.08,12.54-7.75,14.18-14.91,27.84-4.96,9.47-13.02,25.59-23.59,50.01Z"/>
  <path class="cls-4" d="M1908.26,614.7c-3.18,3.42-6.09,5.76-8.15,7.25-3.45,2.51-4.76,2.83-7.88,5.3-3.36,2.66-4.58,4.45-7.33,7.34-2.48,2.6-6.25,6.16-11.64,9.87-.34-.55-.72-1.35-.65-2.28.06-.83.42-.91.46-1.58.1-1.45-1.49-1.8-1.94-3.7-.33-1.37.31-1.96-.27-2.71-.58-.75-1.32-.28-2.26-.93-1.58-1.09-.6-3.17-2.28-4.61-.8-.68-1.29-.45-2.39-1.47-.61-.56-.66-.82-1.34-1.6-.8-.91-1.29-1.2-2.46-2.18-2.05-1.71-1.65-1.74-2.9-2.68-1.9-1.42-2.69-1.24-4.22-2.55-1-.86-1.65-1.78-2.03-2.43,1-.61,2.53-1.34,4.47-1.46,1.44-.09,1.57.25,2.83.24,3.2-.05,3.68-2.25,7.37-3.02,2.5-.52,3.11.32,4.28-.55,1.6-1.17.67-2.86,2.2-5.54,1.58-2.75,3.07-1.86,4.4-4.56,1.14-2.31.66-4.21,2.29-5.18.64-.38,1.39-.48,1.72-1.22.31-.7-.06-1.3-.09-1.99-.04-.89.46-2.13,2.82-3.67,3.25,3.19,3.86,5.08,3.74,6.24-.03.3-.17,1.15.32,1.88.48.71,1.22.81,1.84,1.07,1.98.83,1.62,2.89,3.95,5.72.47.57,1.48,1.43,3.49,3.16,2.11,1.81,2.69,2.13,3.37,3.27.62,1.03.63,1.6,1.36,2.12.89.64,1.72.43,2.92.6,1.02.14,2.4.58,4,1.88Z"/>
  <path class="cls-6" d="M1900.38,616.5c-2.35,2.53-4.5,4.25-6.02,5.36-2.55,1.85-3.52,2.09-5.82,3.92-2.48,1.97-3.38,3.28-5.42,5.43-1.83,1.92-4.61,4.55-8.6,7.29-.25-.4-.53-1-.48-1.69.05-.62.31-.67.34-1.17.07-1.07-1.1-1.33-1.44-2.73-.24-1.01.23-1.45-.2-2-.43-.55-.97-.21-1.67-.69-1.17-.81-.44-2.34-1.69-3.41-.59-.5-.95-.33-1.77-1.09-.45-.42-.48-.6-.99-1.18-.59-.67-.95-.89-1.82-1.61-1.52-1.27-1.22-1.29-2.14-1.98-1.41-1.05-1.99-.91-3.12-1.89-.74-.64-1.22-1.32-1.5-1.79.74-.45,1.87-.99,3.3-1.08,1.06-.07,1.16.19,2.09.17,2.36-.03,2.72-1.66,5.44-2.23,1.84-.39,2.3.23,3.16-.4,1.18-.87.49-2.12,1.63-4.1,1.17-2.03,2.27-1.38,3.25-3.37.84-1.71.49-3.11,1.69-3.83.48-.28,1.02-.36,1.27-.9.23-.52-.04-.96-.07-1.47-.03-.66.34-1.57,2.09-2.71,2.4,2.36,2.85,3.75,2.76,4.61-.02.22-.12.85.24,1.39.35.52.9.6,1.36.79,1.46.61,1.2,2.14,2.92,4.22.35.42,1.09,1.06,2.58,2.34,1.56,1.34,1.99,1.57,2.49,2.41.45.76.46,1.18,1,1.57.66.48,1.27.31,2.16.44.75.11,1.77.43,2.95,1.39Z"/>
  <path class="cls-14" d="M1845.03,596.36c-5.63,1.95-10.32,2.77-13.55,3.16-5.4.65-7.08.13-12.09.97-5.39.9-7.83,2.23-12.68,3.83-4.35,1.44-10.74,3.15-19.07,3.91-.06-.9-.01-2.14.62-3.23.56-.97,1.01-.81,1.47-1.61.97-1.69-.62-3.23,0-5.85.44-1.89,1.51-2.17,1.3-3.48-.21-1.31-1.33-1.26-2.01-2.71-1.15-2.43,1.2-4.27.14-7.2-.5-1.39-1.2-1.45-1.84-3.46-.36-1.11-.26-1.45-.57-2.87-.36-1.66-.75-2.36-1.5-4.36-1.31-3.51-.84-3.27-1.7-5.27-1.32-3.05-2.32-3.37-3.27-6.04-.63-1.75-.81-3.31-.87-4.37,1.5-.05,3.66.12,5.93,1.33,1.68.89,1.63,1.4,3.07,2.26,3.66,2.17,5.52-.18,10.16,1.45,3.14,1.1,3.34,2.55,5.18,2.31,2.5-.32,2.45-3.02,5.79-5.21,3.42-2.25,4.59-.13,7.69-2.49,2.67-2.02,3.24-4.67,5.68-4.71.96-.02,1.86.37,2.67-.29.77-.64.71-1.62,1.08-2.48.48-1.11,1.78-2.27,5.38-2.5,1.79,6.14,1.36,8.86.54,10.19-.21.34-.87,1.29-.75,2.51.12,1.19.91,1.83,1.46,2.58,1.76,2.39.12,4.64,1.09,9.7.2,1.02.83,2.77,2.09,6.28,1.32,3.67,1.79,4.46,1.89,6.32.09,1.68-.23,2.38.28,3.53.63,1.4,1.7,1.72,2.96,2.76,1.07.88,2.38,2.38,3.42,5.07Z"/>
  <path class="cls-15" d="M1835.02,593.08c-4.16,1.44-7.63,2.05-10.01,2.33-3.99.48-5.23.1-8.93.72-3.98.66-5.78,1.64-9.36,2.83-3.21,1.07-7.93,2.32-14.08,2.89-.05-.67,0-1.58.46-2.39.42-.72.75-.6,1.08-1.19.72-1.25-.46-2.39,0-4.32.32-1.4,1.12-1.6.96-2.57-.16-.97-.98-.93-1.48-2-.85-1.79.89-3.15.11-5.32-.37-1.02-.88-1.07-1.36-2.55-.26-.82-.19-1.07-.42-2.12-.27-1.23-.55-1.74-1.11-3.22-.97-2.59-.62-2.42-1.26-3.89-.97-2.25-1.71-2.49-2.42-4.46-.46-1.29-.6-2.45-.64-3.23,1.11-.04,2.7.09,4.38.98,1.24.66,1.2,1.03,2.27,1.67,2.7,1.6,4.08-.13,7.5,1.07,2.32.81,2.47,1.88,3.83,1.71,1.85-.23,1.81-2.23,4.28-3.85,2.53-1.66,3.39-.1,5.68-1.84,1.97-1.49,2.4-3.45,4.19-3.48.71-.01,1.37.28,1.97-.22.57-.47.52-1.19.8-1.84.35-.82,1.32-1.68,3.98-1.85,1.32,4.54,1,6.55.4,7.53-.16.25-.64.95-.55,1.85.09.88.67,1.35,1.08,1.9,1.3,1.77.09,3.43.8,7.17.14.76.61,2.05,1.54,4.64.98,2.71,1.32,3.3,1.39,4.67.06,1.24-.17,1.76.21,2.61.46,1.04,1.26,1.27,2.19,2.04.79.65,1.76,1.75,2.53,3.74Z"/>
  <path class="cls-13" d="M2090.94,633.45c-7.33,1-13.23.86-17.25.56-6.73-.51-8.65-1.53-14.95-1.72-6.78-.21-10.07.8-16.35,1.58-5.64.69-13.83,1.21-24.15.14.14-1.1.51-2.58,1.53-3.73.92-1.03,1.43-.74,2.17-1.58,1.59-1.8.03-4.02,1.41-7.02.99-2.16,2.37-2.25,2.43-3.87.06-1.63-1.31-1.83-1.79-3.73-.81-3.19,2.49-4.84,1.92-8.6-.27-1.78-1.11-2.02-1.41-4.59-.17-1.41.03-1.8,0-3.58-.04-2.08-.34-3.01-.77-5.59-.75-4.53-.23-4.12-.8-6.73-.87-3.97-2-4.6-2.52-8.03-.34-2.25-.19-4.17,0-5.45,1.83.3,4.43,1.02,6.9,3.01,1.83,1.47,1.64,2.07,3.19,3.44,3.93,3.47,6.76,1.1,12.01,4.16,3.56,2.07,3.45,3.85,5.75,4.01,3.12.22,3.72-3.04,8.31-4.87,4.71-1.88,5.61.94,9.97-1.15,3.73-1.79,5.08-4.83,8.05-4.3,1.17.21,2.17.89,3.32.29,1.1-.58,1.25-1.77,1.92-2.72.85-1.22,2.72-2.3,7.16-1.72.7,7.8-.49,10.96-1.8,12.36-.34.36-1.37,1.34-1.52,2.83-.14,1.46.66,2.42,1.15,3.44,1.56,3.29-.98,5.6-1.02,11.9,0,1.27.33,3.52,1.02,8.03.72,4.72,1.1,5.78.77,8.03-.3,2.04-.86,2.8-.51,4.3.43,1.83,1.66,2.47,2.94,4.01,1.09,1.31,2.32,3.42,2.94,6.9Z"/>
  <path class="cls-2" d="M2079.55,627.12c-5.41.74-9.78.64-12.74.41-4.97-.38-6.39-1.13-11.04-1.27-5.01-.15-7.44.59-12.08,1.16-4.17.51-10.22.9-17.84.11.11-.81.37-1.9,1.13-2.75.68-.76,1.06-.54,1.6-1.16,1.17-1.33.02-2.97,1.04-5.19.73-1.6,1.75-1.66,1.79-2.86.04-1.2-.97-1.35-1.32-2.75-.6-2.36,1.84-3.57,1.42-6.35-.2-1.32-.82-1.5-1.04-3.39-.12-1.05.03-1.33,0-2.65-.03-1.54-.25-2.22-.57-4.13-.55-3.34-.17-3.05-.59-4.97-.64-2.93-1.48-3.4-1.86-5.93-.25-1.66-.14-3.08,0-4.02,1.35.22,3.27.76,5.1,2.22,1.35,1.09,1.21,1.53,2.36,2.54,2.9,2.57,4.99.81,8.87,3.07,2.63,1.53,2.55,2.85,4.25,2.96,2.31.16,2.75-2.25,6.14-3.6,3.48-1.39,4.15.69,7.36-.85,2.76-1.32,3.75-3.57,5.95-3.18.86.15,1.61.66,2.45.21.81-.43.92-1.31,1.42-2.01.63-.9,2.01-1.7,5.29-1.27.51,5.76-.36,8.1-1.33,9.13-.25.27-1.02.99-1.12,2.09-.1,1.08.49,1.79.85,2.54,1.15,2.43-.72,4.14-.76,8.79,0,.94.25,2.6.76,5.93.53,3.49.81,4.27.57,5.93-.22,1.51-.64,2.07-.38,3.18.31,1.35,1.23,1.82,2.17,2.96.8.97,1.71,2.52,2.17,5.09Z"/>
</svg>