<?xml version="1.0" encoding="UTF-8"?>
<svg id="placard" xmlns="http://www.w3.org/2000/svg" viewBox="0 0 3030.96 1234.19">
  <defs>
    <style>
      .cls-1 {
        fill: #f4d2b3;
      }

      .cls-2 {
        fill: #53a6af;
      }

      .cls-3 {
        fill: none;
        stroke: #b58d6d;
        stroke-miterlimit: 10;
        stroke-width: 4px;
      }

      .cls-4 {
        fill: #fcdfd1;
      }
    </style>
  </defs>
  <path class="cls-4" d="M1373.95,773.21c53.02-12.42,106.05-24.84,159.07-37.27,13.82,1.05,27.65,2.11,41.47,3.16l-165.21,40.31c-11.78-2.07-23.55-4.14-35.33-6.2Z"/>
  <path class="cls-2" d="M1373.95,773.21c5.63,74.52,11.26,149.03,16.9,223.55,11.61,4.79,23.23,9.59,34.84,14.38-5.47-77.24-10.94-154.49-16.41-231.73-11.78-2.07-23.55-4.14-35.33-6.2Z"/>
  <path class="cls-1" d="M1409.28,779.41c5.47,77.24,10.94,154.49,16.41,231.73,51.63-20.3,103.26-40.6,154.89-60.9-2.03-70.38-4.06-140.76-6.08-211.14-55.07,13.44-110.14,26.87-165.21,40.31Z"/>
  <path class="cls-3" d="M1499.36,757.43c4.34,73.33,8.69,146.65,13.03,219.98"/>
  <ellipse class="cls-2" cx="1490.61" cy="875.68" rx="10.17" ry="12.22"/>
  <ellipse class="cls-2" cx="1524.55" cy="866.31" rx="10.17" ry="12.22"/>
</svg>